<?xml version="1.0" standalone="no"?>
<!DOCTYPE svg PUBLIC "-//W3C//DTD SVG 20010904//EN"
 "http://www.w3.org/TR/2001/REC-SVG-20010904/DTD/svg10.dtd">
<svg version="1.0" xmlns="http://www.w3.org/2000/svg"
 width="528.000000pt" height="300.000000pt" viewBox="0 0 528.000000 300.000000"
 preserveAspectRatio="xMidYMid meet">

<g transform="translate(0.000000,300.000000) scale(0.100000,-0.100000)"
fill="#000000" stroke="none">
<path d="M2620 2555 c-30 -7 -77 -23 -105 -35 -93 -40 -245 -140 -245 -161 0
-5 23 9 51 31 115 91 276 159 377 161 41 0 51 3 37 9 -27 12 -50 11 -115 -5z"/>
<path d="M2475 2433 c-6 -32 -46 -169 -62 -210 -3 -7 -1 -13 4 -13 5 0 24 46
41 103 41 133 46 157 34 157 -5 0 -13 -17 -17 -37z"/>
<path d="M2891 2451 c-8 -5 -10 -14 -6 -21 5 -8 4 -11 -2 -7 -6 4 -23 -9 -37
-28 -51 -66 -94 -68 -76 -4 9 32 -2 46 -19 26 -14 -18 5 -87 25 -87 8 0 27 8
41 17 14 10 38 16 52 15 26 -3 141 63 141 80 0 5 -18 -5 -40 -21 -44 -31 -98
-56 -106 -49 -3 3 9 19 26 36 39 40 40 68 1 43z"/>
<path d="M2591 2355 c-14 -57 -8 -68 13 -26 9 17 26 40 38 51 12 11 17 20 12
20 -6 0 -16 -6 -22 -12 -10 -10 -14 -10 -21 0 -6 9 -12 -2 -20 -33z"/>
<path d="M2675 2369 c-12 -35 11 -46 40 -19 14 13 25 28 25 33 0 6 -12 0 -26
-14 l-27 -24 6 23 c7 28 -9 29 -18 1z"/>
<path d="M3401 2103 c-31 -21 -29 -80 3 -95 31 -14 53 -5 68 27 23 51 -27 99
-71 68z m47 -15 c17 -17 15 -44 -4 -63 -21 -21 -44 -3 -44 35 0 40 23 53 48
28z"/>
<path d="M1655 2055 c0 -42 3 -55 15 -55 12 0 15 13 15 55 0 42 -3 55 -15 55
-12 0 -15 -13 -15 -55z"/>
<path d="M1730 2099 c0 -6 9 -8 21 -4 21 7 22 5 17 -44 -4 -42 -2 -51 11 -51
13 0 15 9 12 51 -3 48 -2 51 18 44 12 -4 21 -2 21 4 0 6 -21 11 -50 11 -29 0
-50 -5 -50 -11z"/>
<path d="M1875 2068 c-9 -24 -19 -49 -22 -55 -3 -7 2 -13 11 -13 9 0 16 7 16
15 0 9 10 15 26 15 19 0 25 -4 20 -15 -4 -10 1 -15 16 -15 15 0 18 3 10 13 -5
6 -16 31 -23 55 -6 23 -18 42 -24 42 -7 0 -21 -19 -30 -42z m39 -3 c3 -9 0
-15 -9 -15 -8 0 -15 7 -15 15 0 8 4 15 9 15 5 0 11 -7 15 -15z"/>
<path d="M1995 2055 l0 -55 36 0 c23 0 39 5 42 15 5 11 0 13 -23 8 -29 -5 -30
-5 -30 35 0 23 5 43 13 45 6 3 1 6 -13 6 -24 1 -25 -2 -25 -54z"/>
<path d="M2115 2055 c0 -42 3 -55 15 -55 12 0 15 13 15 55 0 42 -3 55 -15 55
-12 0 -15 -13 -15 -55z"/>
<path d="M2204 2055 c-20 -52 -21 -55 -3 -55 12 0 16 5 13 15 -5 11 1 15 20
15 16 0 26 -6 26 -15 0 -8 7 -15 16 -15 9 0 14 3 12 8 -1 4 -11 28 -22 55 -10
26 -24 47 -30 47 -6 0 -21 -25 -32 -55z m46 4 c0 -5 -7 -9 -15 -9 -9 0 -12 6
-9 15 6 15 24 11 24 -6z"/>
<path d="M2335 2055 c0 -48 3 -55 20 -55 15 0 16 3 7 12 -13 13 -17 58 -4 58
4 0 17 -16 30 -35 12 -19 26 -35 31 -35 5 0 11 25 13 55 2 45 0 55 -12 55 -12
0 -15 -8 -12 -35 2 -19 2 -35 -1 -35 -3 0 -14 16 -26 35 -30 52 -46 45 -46
-20z"/>
<path d="M2540 2099 c0 -6 9 -8 21 -4 21 7 22 5 17 -44 -4 -42 -2 -51 11 -51
13 0 15 9 12 51 -3 48 -2 51 18 44 12 -4 21 -2 21 4 0 6 -21 11 -50 11 -29 0
-50 -5 -50 -11z"/>
<path d="M2678 2098 c7 -7 12 -26 12 -43 0 -17 -5 -36 -12 -43 -9 -9 -6 -12
16 -12 24 0 26 2 16 15 -12 14 -6 35 9 35 4 0 13 -11 19 -25 6 -14 16 -25 22
-25 7 0 7 7 -1 21 -8 15 -8 28 -1 44 14 31 -2 45 -52 45 -31 0 -37 -3 -28 -12z
m70 -15 c5 -17 -26 -29 -40 -15 -6 6 -7 15 -3 22 9 14 37 9 43 -7z"/>
<path d="M2843 2093 c-3 -10 -12 -33 -19 -52 -17 -41 -17 -41 1 -41 8 0 15 7
15 15 0 8 9 15 20 15 11 0 20 -7 20 -15 0 -8 9 -15 19 -15 18 0 18 2 6 28 -8
15 -18 39 -24 55 -12 31 -29 35 -38 10z m27 -28 c0 -8 -4 -15 -10 -15 -5 0
-10 7 -10 15 0 8 5 15 10 15 6 0 10 -7 10 -15z"/>
<path d="M2955 2055 l0 -56 35 3 c45 4 70 43 52 82 -9 21 -18 26 -49 26 l-38
0 0 -55z m65 30 c18 -21 4 -65 -20 -65 -17 0 -20 7 -20 40 0 43 17 53 40 25z"/>
<path d="M3088 2103 c15 -6 16 -75 0 -91 -9 -9 -7 -12 13 -12 23 0 24 3 24 55
0 52 -1 55 -25 54 -14 0 -19 -3 -12 -6z"/>
<path d="M3160 2099 c0 -6 9 -8 21 -4 20 7 21 4 18 -44 -3 -42 -1 -51 12 -51
13 0 15 9 11 51 -5 49 -4 51 17 44 12 -4 21 -2 21 4 0 6 -21 11 -50 11 -29 0
-50 -5 -50 -11z"/>
<path d="M3305 2055 c0 -42 3 -55 15 -55 12 0 15 13 15 55 0 42 -3 55 -15 55
-12 0 -15 -13 -15 -55z"/>
<path d="M3518 2103 c15 -6 16 -75 0 -91 -9 -9 -6 -12 17 -12 23 0 26 3 17 12
-13 13 -17 58 -4 58 4 0 16 -16 26 -35 25 -47 36 -44 36 8 0 24 5 48 12 55 9
9 5 12 -17 12 -20 0 -26 -3 -17 -9 8 -5 12 -21 10 -37 l-3 -29 -23 38 c-16 25
-31 37 -45 36 -12 0 -16 -3 -9 -6z"/>
<path d="M2302 1658 c16 -30 24 -369 10 -420 l-10 -38 65 0 c59 0 64 2 52 16
-9 10 -15 70 -21 182 -7 170 -3 247 14 270 8 9 -4 12 -56 12 -66 0 -67 0 -54
-22z"/>
<path d="M2627 1663 c-24 -86 -18 -104 23 -69 25 20 103 46 141 46 16 0 8
-389 -9 -417 -13 -23 -12 -23 54 -23 60 0 65 2 58 18 -11 20 -18 343 -9 390 5
25 10 32 23 29 9 -3 38 -10 64 -17 26 -7 56 -21 67 -31 32 -30 43 -24 36 19
-14 79 8 72 -230 72 -195 0 -214 -2 -218 -17z"/>
<path d="M1975 1653 c12 -30 26 -191 23 -267 l-3 -72 -145 165 -145 166 -53 3
c-56 3 -61 -1 -36 -29 20 -22 37 -205 32 -349 l-3 -100 49 0 c42 0 47 2 41 18
-22 52 -50 332 -34 332 7 0 220 -241 269 -302 18 -24 29 -28 71 -28 27 0 49 2
49 3 0 2 -7 17 -15 34 -21 42 -34 405 -15 428 11 13 6 15 -40 15 -46 0 -51 -2
-45 -17z"/>
<path d="M3374 1631 c16 -17 26 -36 23 -45 -7 -17 -185 -329 -211 -368 l-18
-28 53 0 c53 0 54 1 55 29 1 16 10 46 21 68 l20 38 94 -4 c52 -2 99 -7 105
-12 16 -13 37 -95 31 -119 -5 -18 0 -20 38 -20 23 0 57 -3 76 -7 l33 -6 -23
31 c-12 17 -62 130 -110 249 l-89 218 -63 3 -64 3 29 -30z m94 -185 c18 -44
31 -81 29 -82 -5 -6 -158 9 -155 15 61 120 83 159 89 153 3 -4 20 -43 37 -86z"/>
<path d="M3901 1604 c8 -21 8 -60 -1 -144 -16 -173 -30 -272 -41 -291 -10 -20
-3 -21 176 -39 61 -6 120 -13 133 -16 20 -4 26 3 46 48 13 29 21 57 16 61 -4
4 -24 -2 -45 -15 -31 -18 -58 -23 -132 -26 l-93 -4 0 38 c0 88 31 348 44 375
l14 29 -33 0 c-18 0 -47 3 -64 6 -31 7 -31 6 -20 -22z"/>
<path d="M1105 1603 c-68 -6 -72 -11 -35 -41 l33 -28 -58 -155 c-32 -84 -69
-180 -82 -213 -13 -32 -22 -60 -19 -63 2 -2 25 -1 50 2 40 6 45 10 41 29 -3
11 1 44 8 71 l13 50 65 7 c35 4 81 9 102 12 38 4 39 4 63 -47 13 -29 24 -61
24 -71 0 -17 5 -18 53 -12 28 3 60 6 70 6 15 0 13 7 -16 43 -18 23 -84 126
-146 230 -62 103 -116 186 -120 185 -3 -1 -24 -3 -46 -5z m80 -199 c25 -42 44
-78 42 -80 -6 -6 -141 -22 -146 -17 -5 4 48 173 54 173 2 0 24 -34 50 -76z"/>
<path d="M4448 1523 c22 -27 66 -88 97 -136 l57 -88 -7 -62 c-3 -34 -14 -85
-24 -114 l-18 -52 46 -6 c25 -4 54 -9 64 -12 15 -4 16 -1 6 24 -7 19 -7 53 2
117 l12 89 66 63 c36 34 90 81 118 105 29 23 51 45 48 47 -3 3 -25 8 -50 12
-43 6 -47 5 -60 -19 -15 -28 -142 -158 -148 -150 -18 23 -97 170 -102 190 -6
23 -13 27 -58 33 -93 11 -92 11 -49 -41z"/>
<path d="M430 1514 c-41 -7 -76 -13 -76 -13 -1 -1 7 -18 16 -38 21 -44 64
-334 58 -394 l-4 -40 61 6 c33 4 61 9 63 10 2 2 -4 14 -12 28 -22 33 -47 177
-32 182 6 2 34 5 62 8 107 8 184 71 184 149 0 88 -44 119 -167 117 -43 -1
-112 -7 -153 -15z m185 -38 c38 -16 55 -42 55 -84 0 -41 -45 -77 -104 -86 -74
-11 -83 -5 -91 67 -3 34 -9 70 -11 79 -9 32 92 48 151 24z"/>
<path d="M1800 800 c-25 -25 -26 -62 -1 -84 25 -23 65 -17 69 9 3 16 1 18 -9
8 -32 -31 -69 1 -54 47 7 22 35 26 53 8 9 -9 12 -8 12 4 0 15 -19 28 -41 28
-5 0 -18 -9 -29 -20z"/>
<path d="M2320 812 c-22 -10 -22 -112 0 -112 12 0 15 13 15 60 0 33 0 60 0 59
0 0 -7 -3 -15 -7z"/>
<path d="M2395 804 c-10 -11 -15 -29 -13 -53 2 -29 8 -37 31 -45 35 -13 60 10
60 55 0 50 -45 75 -78 43z m55 -19 c18 -21 4 -65 -20 -65 -25 0 -40 29 -29 58
10 25 31 29 49 7z"/>
<path d="M2940 812 c-10 -5 -15 -23 -15 -59 l-1 -53 38 0 c27 0 38 4 38 15 0
12 -7 14 -26 9 l-27 -7 5 52 c3 28 5 51 4 50 -1 0 -8 -3 -16 -7z"/>
<path d="M3097 812 c-9 -2 -15 -7 -12 -11 2 -5 -2 -17 -10 -27 -13 -18 -14
-18 -20 9 -5 19 -14 27 -29 27 -12 0 -16 -3 -10 -8 19 -12 44 -70 38 -86 -4
-11 0 -16 14 -16 15 0 18 5 15 24 -3 16 3 37 17 56 24 34 24 38 -3 32z"/>
<path d="M1525 755 l0 -55 38 0 c24 0 37 5 37 14 0 9 -8 12 -25 8 -18 -3 -25
0 -25 12 0 9 8 16 20 16 11 0 20 5 20 10 0 6 -9 10 -20 10 -12 0 -20 7 -20 16
0 12 6 15 25 10 14 -4 25 -2 25 4 0 5 -17 10 -37 10 l-38 0 0 -55z"/>
<path d="M1660 788 c25 -27 25 -29 -1 -62 -20 -25 -20 -26 -1 -26 12 0 22 9
25 21 6 23 27 17 27 -7 0 -8 9 -14 20 -14 11 0 20 2 20 5 0 3 -9 15 -20 27
-25 27 -25 29 0 56 20 21 20 22 1 22 -10 0 -21 -7 -25 -15 -3 -8 -10 -15 -16
-15 -5 0 -10 7 -10 15 0 8 -9 15 -20 15 l-21 0 21 -22z"/>
<path d="M1915 755 l0 -55 43 0 c30 0 42 4 42 15 0 11 -8 13 -30 9 -23 -5 -30
-3 -30 10 0 9 8 16 20 16 11 0 20 5 20 10 0 6 -9 10 -20 10 -12 0 -20 7 -20
16 0 13 7 15 30 10 19 -3 29 -2 25 4 -3 6 -23 10 -43 10 l-37 0 0 -55z"/>
<path d="M2045 755 c0 -46 3 -55 18 -55 13 0 16 5 11 24 -5 21 -2 25 23 28 22
2 28 8 28 28 0 22 -5 25 -40 28 l-40 3 0 -56z m60 25 c0 -8 -8 -16 -17 -18
-13 -2 -18 3 -18 18 0 15 5 20 18 18 9 -2 17 -10 17 -18z"/>
<path d="M2160 799 c0 -6 9 -8 21 -4 21 7 22 5 17 -44 -4 -43 -3 -51 12 -51
15 0 16 8 12 51 -5 49 -4 51 17 44 12 -4 21 -2 21 4 0 6 -21 11 -50 11 -29 0
-50 -5 -50 -11z"/>
<path d="M2515 755 c0 -45 3 -55 17 -55 13 0 15 7 11 40 -3 22 -3 40 0 40 3 0
16 -18 28 -40 13 -22 26 -40 31 -40 4 0 8 22 8 49 0 30 5 51 13 54 6 3 -1 6
-18 6 -20 0 -26 -2 -17 -8 8 -5 12 -21 10 -37 l-3 -29 -23 38 c-36 56 -57 50
-57 -18z"/>
<path d="M2686 778 c-27 -65 -29 -78 -11 -78 11 0 15 5 11 15 -4 11 1 15 19
15 16 0 25 -6 25 -15 0 -8 7 -15 15 -15 18 0 19 -5 -4 55 -10 27 -24 51 -30
53 -6 2 -17 -11 -25 -30z m34 -13 c0 -8 -7 -15 -15 -15 -9 0 -12 6 -9 15 4 8
10 15 15 15 5 0 9 -7 9 -15z"/>
<path d="M2805 755 l0 -55 38 0 c24 0 37 5 37 14 0 9 -8 12 -26 8 -26 -5 -26
-4 -23 42 3 36 1 46 -11 46 -12 0 -15 -13 -15 -55z"/>
<path d="M3225 755 c0 -45 3 -55 17 -55 13 0 15 8 12 43 l-4 42 16 -37 c9 -21
21 -38 26 -38 5 0 17 17 26 38 l16 37 4 -28 c2 -16 -2 -35 -9 -43 -9 -11 -7
-14 12 -14 22 0 24 4 24 55 0 49 -2 55 -21 55 -15 0 -25 -11 -36 -37 l-15 -38
-16 38 c-10 23 -23 37 -34 37 -15 0 -18 -9 -18 -55z"/>
<path d="M3433 793 c-3 -10 -12 -33 -19 -52 -17 -41 -17 -41 1 -41 8 0 15 7
15 15 0 9 9 15 25 15 18 0 23 -4 19 -15 -4 -11 0 -15 16 -15 17 0 20 3 12 13
-5 6 -16 31 -23 55 -13 43 -35 55 -46 25z m31 -28 c3 -9 0 -15 -9 -15 -8 0
-15 7 -15 15 0 8 4 15 9 15 5 0 11 -7 15 -15z"/>
<path d="M3545 755 c0 -52 1 -55 25 -55 34 0 70 26 70 51 0 40 -19 59 -58 59
l-37 0 0 -55z m65 30 c18 -21 4 -65 -20 -65 -17 0 -20 7 -20 40 0 43 17 53 40
25z"/>
<path d="M3685 755 l0 -55 38 0 c24 0 37 5 37 14 0 9 -8 12 -25 8 -18 -3 -25
0 -25 12 0 9 8 16 20 16 11 0 20 5 20 10 0 6 -9 10 -20 10 -12 0 -20 7 -20 16
0 12 6 15 25 10 14 -4 25 -2 25 4 0 5 -17 10 -37 10 l-38 0 0 -55z"/>
<path d="M2290 465 l0 -35 115 0 115 0 0 35 0 35 -115 0 -115 0 0 -35z"/>
<path d="M2760 468 l0 -33 115 3 115 3 0 30 0 29 -115 0 -115 0 0 -32z"/>
</g>
</svg>
